<?xml version="1.0" standalone="no"?>
<!DOCTYPE svg PUBLIC "-//W3C//DTD SVG 20010904//EN"
 "http://www.w3.org/TR/2001/REC-SVG-20010904/DTD/svg10.dtd">
<svg version="1.0" xmlns="http://www.w3.org/2000/svg"
 width="300.000000pt" height="300.000000pt" viewBox="0 0 300.000000 300.000000"
 preserveAspectRatio="xMidYMid meet">

<g transform="translate(0.000000,300.000000) scale(0.100000,-0.100000)"
fill="#000000" stroke="none">
<path d="M1593 2133 c9 -2 25 -2 35 0 9 3 1 5 -18 5 -19 0 -27 -2 -17 -5z"/>
<path d="M1490 1806 c0 -9 5 -16 10 -16 6 0 10 4 10 9 0 6 -4 13 -10 16 -5 3
-10 -1 -10 -9z"/>
<path d="M1420 1526 c0 -14 5 -26 10 -26 6 0 10 9 10 19 0 11 -4 23 -10 26 -6
4 -10 -5 -10 -19z"/>
<path d="M1795 1443 c-80 -18 -469 -24 -617 -10 -85 8 -88 7 -88 -13 0 -51 54
-122 117 -154 44 -22 519 -24 561 -2 34 18 75 62 96 103 16 33 22 94 9 92 -5
-1 -39 -8 -78 -16z m25 -57 c0 -16 -37 -36 -65 -36 -65 0 -73 13 -15 26 66 14
80 15 80 10z"/>
<path d="M1060 807 c0 -24 5 -48 12 -55 7 -7 9 -12 6 -12 -4 0 0 -23 8 -51 13
-43 13 -53 2 -60 -9 -6 -7 -9 8 -9 12 0 27 -7 34 -15 10 -12 16 -13 26 -4 9 7
14 8 14 1 0 -6 -5 -12 -12 -14 -8 -3 -7 -12 5 -34 8 -16 18 -41 21 -55 9 -41
81 -115 130 -134 51 -19 101 -16 53 3 -19 8 -35 29 -54 69 -23 48 -27 72 -28
143 0 74 4 93 28 143 17 33 40 63 55 72 32 17 12 19 -41 4 -50 -14 -109 -67
-133 -121 -29 -68 -54 -76 -78 -26 -21 41 -21 79 -1 72 8 -4 15 -12 15 -19 0
-7 7 -15 15 -19 13 -5 14 -2 5 15 -6 11 -18 23 -26 26 -9 3 -12 13 -8 28 3 13
1 31 -4 41 -9 16 -10 15 -16 -4 -13 -38 -29 -25 -23 18 3 22 1 40 -4 40 -5 0
-9 -19 -9 -43z m46 -53 c-4 -9 -9 -15 -11 -12 -3 3 -3 13 1 22 4 9 9 15 11 12
3 -3 3 -13 -1 -22z"/>
<path d="M1145 840 c-3 -5 -1 -10 4 -10 6 0 11 5 11 10 0 6 -2 10 -4 10 -3 0
-8 -4 -11 -10z"/>
<path d="M1459 784 c13 -9 32 -35 42 -58 16 -36 19 -38 19 -15 0 15 -3 41 -6
58 -6 28 -10 31 -42 31 l-36 0 23 -16z"/>
<path d="M1958 783 c-26 -31 -29 -54 -29 -183 1 -91 -3 -133 -13 -152 l-15
-28 71 0 c64 0 69 1 57 17 -10 11 -15 51 -16 132 -1 64 -8 133 -14 154 -10 30
-10 43 -1 58 10 16 9 19 -6 19 -11 0 -26 -8 -34 -17z"/>
<path d="M2044 792 c9 -15 -4 -42 -21 -42 -10 0 -13 -6 -9 -16 3 -9 6 -18 6
-20 0 -2 13 -4 30 -4 24 0 31 5 36 27 8 30 -5 56 -31 61 -10 2 -15 0 -11 -6z"/>
<path d="M2214 755 c-9 -14 -14 -28 -11 -32 10 -9 59 27 54 40 -7 21 -26 18
-43 -8z"/>
<path d="M1040 690 c0 -5 7 -10 16 -10 8 0 12 5 9 10 -3 6 -10 10 -16 10 -5 0
-9 -4 -9 -10z"/>
<path d="M1695 643 c8 -15 17 -67 21 -113 8 -97 17 -109 80 -110 50 0 58 6 34
30 -10 10 -20 41 -25 76 -12 96 -30 123 -97 139 -27 7 -27 7 -13 -22z"/>
<path d="M2163 663 c-12 -2 -33 -16 -47 -30 -76 -75 -17 -213 90 -213 51 0 98
21 108 47 6 14 5 16 -5 6 -22 -22 -83 -16 -107 10 -42 45 -53 110 -28 160 8
15 14 26 13 26 -1 -1 -12 -4 -24 -6z"/>
<path d="M2226 659 c25 -30 26 -74 3 -103 l-21 -27 28 7 c64 16 74 22 74 53 0
28 -31 71 -51 71 -4 0 -16 3 -26 7 -15 5 -16 4 -7 -8z"/>
<path d="M1600 640 c-25 -25 -25 -35 0 -60 16 -16 25 -18 40 -10 24 13 26 36
3 48 -10 6 -14 16 -10 26 9 22 -9 20 -33 -4z"/>
<path d="M1085 540 c3 -5 8 -10 11 -10 2 0 4 5 4 10 0 6 -5 10 -11 10 -5 0 -7
-4 -4 -10z"/>
<path d="M1631 535 c-47 -15 -61 -28 -61 -61 0 -32 31 -54 78 -54 42 0 56 13
27 24 -20 7 -19 65 2 88 19 21 13 21 -46 3z"/>
<path d="M1502 436 c-7 -19 -27 -47 -45 -62 -18 -15 -24 -25 -14 -21 10 4 29
7 42 7 20 0 25 6 30 44 9 60 3 76 -13 32z"/>
<path d="M1343 185 c0 -38 2 -59 4 -47 l5 24 26 -24 c21 -18 23 -19 9 -2 -9
11 -17 24 -17 29 0 5 8 18 17 29 14 16 12 16 -9 -3 l-27 -23 -4 43 c-2 28 -4
18 -4 -26z"/>
<path d="M1507 243 c-16 -15 -4 -43 34 -82 39 -39 64 -56 40 -28 -6 8 -7 18
-3 22 4 5 2 5 -4 2 -18 -10 -67 49 -61 72 5 22 4 25 -6 14z"/>
<path d="M1773 185 c0 -38 2 -53 4 -32 2 20 2 52 0 70 -2 17 -4 1 -4 -38z"/>
<path d="M1923 185 c0 -38 2 -53 4 -32 2 20 2 52 0 70 -2 17 -4 1 -4 -38z"/>
<path d="M1963 185 c0 -38 2 -53 4 -32 2 20 2 52 0 70 -2 17 -4 1 -4 -38z"/>
<path d="M1056 194 c-4 -9 -4 -19 -1 -22 3 -3 5 0 5 7 0 7 5 9 10 6 6 -3 10
-2 10 4 0 18 -18 21 -24 5z"/>
<path d="M1218 200 c6 -8 12 -23 12 -35 0 -12 -6 -27 -12 -35 -11 -12 -10 -12
5 -1 9 7 17 24 17 36 0 12 -8 29 -17 36 -15 11 -16 11 -5 -1z"/>
<path d="M1682 198 c-20 -20 -12 -78 11 -78 7 0 7 4 -1 12 -7 7 -12 21 -12 33
0 12 5 26 12 33 7 7 10 12 7 12 -3 0 -10 -5 -17 -12z"/>
<path d="M1830 167 c4 -41 5 -41 8 -8 2 18 0 37 -5 42 -5 5 -6 -11 -3 -34z"/>
<path d="M1273 160 c0 -25 2 -35 4 -22 2 12 2 32 0 45 -2 12 -4 2 -4 -23z"/>
<path d="M1151 164 c0 -12 7 -28 17 -35 15 -12 16 -12 6 1 -7 8 -14 24 -17 35
-4 19 -5 19 -6 -1z"/>
<path d="M1487 173 c-9 -9 -9 -41 1 -46 4 -3 7 8 7 24 0 16 0 29 -1 29 0 0 -4
-3 -7 -7z"/>
<path d="M1020 139 c0 -15 18 -19 23 -6 3 8 -1 14 -9 14 -8 0 -14 -4 -14 -8z"/>
<path d="M1090 130 c0 -5 5 -10 10 -10 6 0 10 5 10 10 0 6 -4 10 -10 10 -5 0
-10 -4 -10 -10z"/>
</g>
</svg>
